<?xml version="1.0" encoding="utf-8"?>
<!-- Generator: Adobe Illustrator 25.4.1, SVG Export Plug-In . SVG Version: 6.00 Build 0)  -->
<svg version="1.1" id="Слой_1" xmlns="http://www.w3.org/2000/svg" xmlns:xlink="http://www.w3.org/1999/xlink" x="0px" y="0px"
	 viewBox="0 0 1000 1000" style="enable-background:new 0 0 1000 1000;" xml:space="preserve">
<style type="text/css">
	.st0{fill-rule:evenodd;clip-rule:evenodd;fill:#B5BBDF;}
	.st1{fill-rule:evenodd;clip-rule:evenodd;fill:#FEFEFE;}
	.st2{fill-rule:evenodd;clip-rule:evenodd;fill:#1A4E99;}
	.st3{fill-rule:evenodd;clip-rule:evenodd;fill:#2957A4;}
	.st4{fill-rule:evenodd;clip-rule:evenodd;fill:#00B6CE;}
</style>
<g id="Слой_x0020_1">
	<path class="st0" d="M2,499.49C2,774.26,224.96,997,500,997c275.04,0,498-222.74,498-497.51C998,224.74,775.04,2,500,2
		C224.96,2,2,224.74,2,499.49z"/>
	<path class="st1" d="M24.08,499.5c0-262.58,213.07-475.43,475.91-475.43c262.84,0,475.91,212.86,475.91,475.43
		c0,262.57-213.07,475.43-475.91,475.43C237.15,974.93,24.08,762.07,24.08,499.5L24.08,499.5z"/>
	<path class="st2" d="M130.29,499.5c0-203.97,165.52-369.33,369.7-369.33c204.18,0,369.7,165.36,369.7,369.33
		c0,203.97-165.52,369.32-369.7,369.32C295.81,868.82,130.29,703.47,130.29,499.5L130.29,499.5z"/>
	<polygon class="st1" points="143.1,499.47 499.96,857.29 856.88,499.47 499.96,141.7 	"/>
	<polygon class="st3" points="327.1,695.33 322.07,690.88 317.25,686.29 312.5,681.55 307.91,676.73 303.53,671.85 299.22,666.89 
		295.06,661.79 291.12,656.61 287.25,651.36 283.53,646.11 279.96,640.72 276.6,635.25 273.32,629.71 270.18,624.17 267.18,618.48 
		264.41,612.8 261.71,607.03 259.16,601.2 256.75,595.37 254.49,589.46 252.44,583.49 250.47,577.51 248.65,571.46 247.04,565.33 
		245.51,559.28 244.13,553.16 242.95,546.96 241.86,540.76 240.99,534.56 240.18,528.37 239.6,522.1 239.09,515.9 238.79,509.63 
		238.65,503.36 238.58,497.09 238.72,490.82 239.01,484.55 239.45,478.29 240.03,472.01 240.77,465.75 241.64,459.55 242.66,453.35 
		243.83,447.15 245.22,440.95 246.68,434.83 248.29,428.71 250.11,422.58 252.01,416.53 254.12,410.55 256.38,404.58 258.79,398.67 
		261.35,392.76 264.05,386.93 266.89,381.1 269.89,375.41 273.1,369.72 276.38,364.11 279.88,358.57 283.46,353.1 287.25,347.63 
		291.2,342.31 295.28,337.06 299.51,331.88 303.89,326.71 308.42,321.75 313.09,316.87 317.76,312.2 322.58,307.61 327.47,303.16 
		332.5,298.93 337.54,294.78 342.72,290.77 347.98,286.98 353.3,283.26 358.7,279.68 364.1,276.26 369.65,272.97 375.27,269.91 
		380.89,266.93 386.65,264.08 392.42,261.38 398.19,258.9 404.1,256.5 410.01,254.24 415.99,252.12 421.98,250.23 428.04,248.41 
		434.09,246.73 440.22,245.27 446.35,243.89 452.48,242.64 458.69,241.62 464.89,240.68 471.17,239.95 477.37,239.29 483.64,238.85 
		489.92,238.56 496.2,238.35 502.47,238.35 508.75,238.49 515.03,238.78 521.3,239.22 527.5,239.73 533.78,240.46 539.98,241.41 
		546.26,242.43 552.46,243.59 558.6,244.91 564.8,246.44 570.86,248.04 576.98,249.86 583.04,251.76 589.03,253.88 595.01,256.14 
		601,258.47 606.91,261.02 612.75,263.72 618.51,266.63 624.28,269.62 629.9,272.76 635.52,276.11 641.13,279.54 646.61,283.18 
		652.01,286.98 657.34,290.91 662.67,295 667.84,299.22 672.96,303.6 677.92,308.12 682.81,312.71 687.55,317.45 692.08,322.26 
		696.53,327.15 700.83,332.18 704.92,337.21 708.94,342.38 712.8,347.63 716.52,352.96 720.03,358.28 723.46,363.74 726.74,369.29 
		729.88,374.9 732.8,380.51 735.65,386.2 738.35,391.96 740.9,397.79 743.31,403.7 745.5,409.6 747.61,415.51 749.58,421.56 
		751.34,427.54 753.01,433.66 754.54,439.71 755.86,445.91 757.1,452.04 758.2,458.23 759.07,464.43 759.87,470.63 760.46,476.9 
		760.9,483.17 761.26,489.37 761.41,495.64 761.41,501.9 761.34,508.17 761.04,514.44 760.6,520.71 760.02,526.98 759.29,533.25 
		758.42,539.45 757.39,545.65 756.15,551.85 754.84,558.04 753.38,564.17 751.7,570.29 749.95,576.41 747.98,582.47 745.94,588.44 
		743.67,594.42 741.27,600.4 738.71,606.23 736.01,612.07 733.16,617.9 730.17,623.59 726.96,629.27 723.68,634.88 720.17,640.43 
		716.6,645.97 712.8,651.36 708.86,656.69 704.78,661.93 700.54,667.18 696.16,672.29 691.64,677.24 686.97,682.13 682.22,686.8 
		677.48,691.39 672.52,695.84 667.55,700.06 662.45,704.22 657.34,708.23 652.08,712.1 646.76,715.74 641.35,719.31 635.88,722.74 
		630.41,726.02 624.79,729.08 619.1,732.07 613.4,734.91 607.64,737.61 601.8,740.16 595.96,742.5 590.05,744.76 584.06,746.87 
		578.08,748.84 572.03,750.59 565.97,752.27 559.84,753.8 553.7,755.11 547.57,756.35 541.37,757.37 535.17,758.32 528.89,759.04 
		522.69,759.7 516.41,760.14 510.14,760.51 503.86,760.65 497.58,760.65 491.31,760.51 485.03,760.29 478.76,759.85 472.48,759.26 
		466.27,758.54 460,757.66 453.8,756.57 447.59,755.4 441.46,754.09 435.26,752.63 429.13,750.95 423.07,749.2 417.01,747.24 
		410.95,745.12 404.97,742.93 399.06,740.53 393.15,737.98 387.31,735.28 381.55,732.44 375.78,729.37 370.09,726.24 364.47,722.89 
		358.92,719.46 353.45,715.81 348.05,712.02 342.65,708.16 337.39,704.08 332.21,699.77 327.1,695.4 	"/>
	<polygon class="st4" points="340.47,680.18 335.82,676.08 331.38,671.84 327,667.47 322.76,663.03 318.72,658.52 314.75,653.95 
		310.91,649.24 307.27,644.46 303.7,639.62 300.27,634.78 296.97,629.8 293.87,624.76 290.84,619.64 287.95,614.53 285.18,609.28 
		282.63,604.04 280.13,598.72 277.78,593.34 275.56,587.96 273.47,582.51 271.58,576.99 269.76,571.48 268.08,565.89 266.6,560.24 
		265.18,554.66 263.9,549.01 262.83,543.29 261.82,537.57 261.01,531.85 260.27,526.14 259.73,520.35 259.26,514.63 258.99,508.85 
		258.86,503.06 258.79,497.28 258.92,491.49 259.19,485.71 259.6,479.92 260.13,474.14 260.81,468.35 261.62,462.64 262.56,456.92 
		263.63,451.2 264.91,445.48 266.26,439.83 267.75,434.18 269.43,428.53 271.18,422.95 273.13,417.43 275.22,411.91 277.44,406.46 
		279.8,401.01 282.29,395.64 284.91,390.25 287.68,385 290.64,379.76 293.67,374.58 296.9,369.47 300.2,364.42 303.7,359.38 
		307.34,354.47 311.11,349.62 315.02,344.84 319.06,340.07 323.23,335.5 327.54,330.99 331.85,326.68 336.29,322.44 340.81,318.34 
		345.45,314.44 350.1,310.6 354.88,306.91 359.73,303.4 364.64,299.97 369.63,296.68 374.61,293.52 379.73,290.49 384.91,287.66 
		390.1,284.91 395.41,282.28 400.74,279.79 406.06,277.51 411.51,275.29 416.96,273.2 422.48,271.25 428.01,269.5 433.6,267.82 
		439.19,266.27 444.84,264.93 450.5,263.65 456.15,262.5 461.88,261.56 467.6,260.69 473.39,260.02 479.12,259.41 484.91,259.01 
		490.7,258.74 496.49,258.54 502.28,258.54 508.07,258.67 513.87,258.94 519.66,259.34 525.38,259.81 531.17,260.49 536.89,261.36 
		542.68,262.3 548.41,263.38 554.07,264.59 559.79,266 565.38,267.48 571.03,269.17 576.62,270.91 582.15,272.86 587.66,274.95 
		593.19,277.1 598.64,279.46 604.03,281.94 609.35,284.64 614.67,287.39 619.85,290.29 625.04,293.38 630.22,296.54 635.28,299.91 
		640.26,303.4 645.17,307.04 650.09,310.81 654.87,314.71 659.58,318.74 664.16,322.92 668.68,327.15 673.05,331.53 677.23,335.96 
		681.33,340.47 685.31,345.11 689.08,349.75 692.78,354.53 696.35,359.38 699.78,364.28 703.01,369.2 706.18,374.24 709.21,379.35 
		712.11,384.54 714.8,389.71 717.42,394.96 719.92,400.28 722.27,405.66 724.5,411.11 726.52,416.56 728.47,422 730.29,427.59 
		731.9,433.11 733.45,438.75 734.87,444.34 736.08,450.06 737.22,455.71 738.23,461.43 739.04,467.14 739.78,472.86 740.32,478.65 
		740.72,484.43 741.06,490.15 741.2,495.93 741.2,501.72 741.13,507.5 740.86,513.29 740.46,519.07 739.92,524.86 739.24,530.64 
		738.43,536.36 737.49,542.08 736.35,547.8 735.14,553.51 733.79,559.17 732.24,564.82 730.62,570.47 728.8,576.05 726.92,581.56 
		724.83,587.08 722.61,592.6 720.25,597.98 717.76,603.36 715.14,608.75 712.38,613.99 709.41,619.24 706.38,624.42 703.15,629.53 
		699.85,634.64 696.35,639.62 692.71,644.53 688.94,649.38 685.04,654.22 681,658.93 676.82,663.5 672.51,668.01 668.13,672.31 
		663.76,676.55 659.18,680.66 654.6,684.56 649.89,688.39 645.17,692.09 640.33,695.66 635.41,699.02 630.43,702.32 625.37,705.48 
		620.33,708.51 615.14,711.33 609.89,714.09 604.63,716.71 599.32,719.2 593.93,721.56 588.54,723.71 583.09,725.79 577.57,727.75 
		572.04,729.56 566.45,731.18 560.87,732.73 555.21,734.14 549.55,735.35 543.9,736.49 538.17,737.43 532.45,738.31 526.66,738.98 
		520.93,739.59 515.14,739.99 509.35,740.32 503.56,740.46 497.77,740.46 491.98,740.32 486.19,740.13 480.4,739.72 474.61,739.18 
		468.88,738.51 463.09,737.7 457.37,736.69 451.64,735.62 445.99,734.41 440.26,733.06 434.61,731.52 429.02,729.9 423.43,728.08 
		417.84,726.13 412.32,724.12 406.87,721.89 401.41,719.54 396.02,717.05 390.7,714.43 385.38,711.6 380.13,708.71 374.94,705.61 
		369.83,702.45 364.78,699.09 359.79,695.59 354.81,692.03 349.96,688.26 345.18,684.29 340.47,680.25 	"/>
	<polygon class="st3" points="403.83,377.32 406.37,375.92 408.84,374.59 411.31,373.32 413.78,372.25 416.18,371.19 418.59,370.32 
		420.99,369.52 423.33,368.78 425.67,368.18 427.94,367.65 430.21,367.19 432.48,366.85 434.68,366.58 436.89,366.45 439.02,366.32 
		441.16,366.32 443.23,366.38 445.3,366.45 447.37,366.65 449.37,366.92 451.31,367.25 453.25,367.65 455.18,368.05 457.05,368.59 
		458.86,369.12 460.66,369.72 462.46,370.39 464.2,371.05 465.87,371.79 467.54,372.59 469.21,373.39 470.81,374.26 472.35,375.12 
		473.88,376.06 475.35,376.99 476.75,377.92 478.15,378.92 479.56,379.93 480.89,380.99 482.16,382 484.57,384.13 486.9,386.26 
		488.97,388.4 489.98,389.47 490.91,390.53 491.84,391.6 492.71,392.67 493.51,393.67 494.32,394.73 494.98,395.67 495.72,396.67 
		496.32,397.61 496.92,398.54 497.45,399.4 497.92,400.27 498.39,401.14 498.79,401.87 499.12,402.68 499.39,403.34 499.73,402.68 
		500.06,401.94 500.46,401.14 500.93,400.27 501.39,399.4 501.93,398.54 502.53,397.61 503.13,396.67 503.8,395.74 504.53,394.73 
		505.33,393.74 506.13,392.67 507,391.67 507.87,390.6 508.81,389.53 509.81,388.47 511.94,386.33 514.21,384.2 516.62,382.13 
		517.89,381.06 519.22,380.06 520.56,379.06 521.96,378.06 523.43,377.12 524.9,376.19 526.43,375.26 527.97,374.39 529.57,373.52 
		531.18,372.72 532.85,371.99 534.51,371.25 536.25,370.52 537.99,369.92 539.79,369.32 541.66,368.78 543.53,368.25 545.4,367.85 
		547.34,367.45 549.34,367.11 551.34,366.92 553.35,366.72 555.42,366.58 557.49,366.58 559.62,366.58 561.76,366.72 563.97,366.85 
		566.17,367.11 568.37,367.52 570.64,367.92 572.98,368.45 575.32,369.05 577.66,369.78 579.99,370.58 582.39,371.52 584.87,372.52 
		587.27,373.66 589.74,374.85 592.28,376.19 594.82,377.66 597.36,379.19 599.89,380.86 598.76,378.79 597.55,376.73 596.35,374.79 
		595.15,372.92 593.88,371.12 592.61,369.32 591.28,367.65 589.94,366.05 588.61,364.45 587.27,362.98 585.87,361.58 584.47,360.18 
		583.06,358.84 581.66,357.64 580.26,356.44 578.79,355.24 577.39,354.17 575.92,353.18 574.45,352.18 572.98,351.24 571.51,350.3 
		570.11,349.51 568.64,348.7 567.17,347.97 564.23,346.57 561.36,345.37 558.56,344.3 555.75,343.43 552.95,342.64 550.27,342.03 
		547.67,341.5 545.2,341.03 542.8,340.7 540.46,340.5 538.26,340.3 536.25,340.23 534.32,340.17 532.58,340.17 531.78,340.17 
		530.98,340.17 530.24,340.17 529.57,340.23 528.97,340.23 528.37,340.3 527.84,340.3 527.3,340.3 526.9,340.37 526.5,340.37 
		526.17,340.43 525.9,340.43 525.77,337.16 525.5,334.03 525.17,331.02 524.83,328.09 524.43,325.29 523.96,322.62 523.43,320.02 
		522.83,317.55 522.16,315.15 521.49,312.81 520.76,310.61 520.02,308.54 519.22,306.48 518.36,304.54 517.49,302.67 516.55,300.94 
		515.62,299.2 514.68,297.6 513.68,296.07 512.68,294.6 511.61,293.2 510.54,291.87 509.48,290.6 508.41,289.4 507.34,288.26 
		506.2,287.2 505.07,286.13 504,285.13 502.86,284.19 501.73,283.33 500.59,282.52 499.46,281.66 499.46,281.72 497.25,283.33 
		496.12,284.19 494.98,285.13 493.85,286.13 492.71,287.13 491.64,288.2 490.51,289.33 489.37,290.53 488.31,291.8 487.24,293.13 
		486.17,294.53 485.17,295.93 484.17,297.47 483.17,299.07 482.23,300.74 481.29,302.54 480.36,304.34 479.56,306.27 478.69,308.28 
		477.95,310.41 477.22,312.61 476.49,314.88 475.88,317.28 475.28,319.75 474.68,322.35 474.22,325.02 473.81,327.82 473.41,330.69 
		473.15,333.76 472.88,336.89 472.68,340.1 472.41,340.1 472.08,340.1 471.74,340.03 471.28,340.03 470.81,339.97 470.27,339.97 
		469.68,339.9 469.01,339.9 468.34,339.9 467.6,339.83 466.87,339.83 466,339.83 464.27,339.83 462.4,339.9 460.32,340.03 
		458.12,340.17 455.85,340.43 453.45,340.76 450.91,341.17 448.31,341.7 445.63,342.37 442.9,343.1 440.09,344.04 437.22,345.1 
		434.35,346.3 431.48,347.64 430.01,348.37 428.54,349.17 427.07,350.04 425.6,350.91 424.13,351.84 422.73,352.84 421.26,353.91 
		419.79,354.97 418.39,356.11 416.99,357.31 415.52,358.58 414.12,359.84 412.71,361.25 411.38,362.65 409.98,364.18 408.64,365.72 
		407.37,367.32 406.04,369.05 404.77,370.79 403.5,372.59 402.23,374.52 401.03,376.46 399.89,378.46 398.69,380.59 401.29,378.92 	
		"/>
	<polygon class="st3" points="615.72,717.42 601.63,657.11 585.8,657.11 586.18,658.74 404.9,696.56 414.18,656.78 398.35,656.78 
		384.26,717.15 400.09,717.15 400.42,715.75 400.56,716.35 590.39,676.73 599.89,717.42 	"/>
	<polygon class="st3" points="456.99,417.55 450.02,447.51 431.28,447.51 431.28,463.58 446.28,463.58 442.96,477.86 458.72,477.86 
		462.06,463.58 537.78,463.58 541.19,478.19 557.02,478.19 553.61,463.58 568.84,463.58 568.84,447.51 549.85,447.51 542.93,417.89 
		527.1,417.89 534.03,447.51 465.82,447.51 472.81,417.55 	"/>
	<polygon class="st3" points="439.02,558.04 439.26,557.04 551.01,515.72 560.96,558.31 576.79,558.31 562.7,498.01 551.29,498.01 
		551.28,497.8 550.74,498.01 546.87,498.01 547.18,499.32 443.77,537.61 453.05,497.67 437.22,497.67 423.2,558.04 	"/>
	<polygon class="st3" points="402.83,640.56 418.65,640.56 428.62,597.94 571.29,597.94 581.33,640.9 597.15,640.9 587.12,597.94 
		601.43,597.94 601.43,580.06 398.69,580.06 398.69,597.94 412.79,597.94 	"/>
	<path class="st3" d="M229.98,208.81l-37.77-43.57l13.23-11.44l33.58,22.95l-18.04-36.4l13.26-11.47L272,172.45l-8.16,7.06
		l-29.77-34.27l21.14,41.73l-8.49,7.34l-38.29-26.89l29.7,34.32C238.14,201.75,229.98,208.81,229.98,208.81z M292.03,111.06
		L292.03,111.06l-9.56,6.13l7.33,30.44l-24.49-19.46l-9.77,6.26l36.34,26.35l-10.38,6.65l3.96,6.17l10.38-6.65l4.61,7.18l9.29-5.95
		l-4.61-7.18l10.38-6.65l-3.95-6.17l-10.38,6.64C301.17,154.83,292.03,111.06,292.03,111.06z M302.99,105.66L302.99,105.66
		l10.06-4.54l6.31,13.94l14.54-6.57l-6.31-13.93l10.06-4.54l17.22,38.07l-10.06,4.54l-7.24-15.99l-14.54,6.57l7.24,15.99
		l-10.06,4.54C320.22,143.73,302.99,105.66,302.99,105.66z M363.85,94.27L363.85,94.27c0.01-2.09,0.41-3.68,1.22-4.77
		c0.79-1.1,2.11-1.96,3.98-2.6c2.76-0.93,4.79-1.14,6.09-0.61c1.29,0.54,2.28,1.82,2.97,3.86l0.36,1.06c-1.62,1.42-4.72,3.44-9.3,6
		c-3.39,1.92-5.88,3.67-7.49,5.25c-1.62,1.58-2.65,3.43-3.13,5.53c-0.47,2.12-0.33,4.29,0.42,6.52c1.15,3.38,3.26,5.78,6.35,7.19
		c3.09,1.42,6.67,1.44,10.73,0.07c2.3-0.78,4.31-1.96,6.05-3.52c1.74-1.57,3.2-3.52,4.39-5.88c0.14,0.17,0.4,0.53,0.78,1.09
		c0.85,1.22,1.54,2.12,2.04,2.71l10.38-3.51c-1.55-1.57-2.77-3.13-3.66-4.67c-0.89-1.54-1.93-4.05-3.1-7.52l-3.98-12.25
		c-1.54-4.55-3.07-7.5-4.57-8.89c-1.5-1.39-3.59-2.24-6.24-2.58c-2.67-0.33-6.34,0.3-11,1.88c-5.14,1.74-8.71,3.98-10.68,6.71
		c-1.98,2.74-2.86,6.22-2.62,10.45C353.81,95.79,363.85,94.27,363.85,94.27z M380.76,97.99L380.76,97.99l0.71,2.08
		c0.85,2.5,1.28,4.25,1.32,5.23c0.07,1.51-0.38,2.93-1.32,4.31c-1.3,1.81-2.89,3.04-4.78,3.68c-1.69,0.57-3.26,0.51-4.72-0.19
		c-1.46-0.7-2.43-1.77-2.93-3.25c-0.5-1.49-0.23-2.94,0.8-4.38c0.69-0.89,2.39-2.14,5.08-3.74
		C377.63,100.13,379.57,98.88,380.76,97.99z M400.42,69.67L400.42,69.67l10.47-1.87l4.62,25.85l12.12-28.83l10.71-1.91l7.35,41.13
		l-10.47,1.87l-4.69-26.22l-12.29,29.25l-10.47,1.87C407.77,110.79,400.42,69.67,400.42,69.67z M423.4,48.48L423.4,48.48l5.32-0.95
		c0.32,3.55-0.43,6.54-2.23,8.92c-1.8,2.38-4.41,3.88-7.83,4.49c-3.44,0.61-6.41,0.11-8.92-1.5c-2.51-1.61-4.25-4.15-5.18-7.59
		l5.32-0.95c0.51,1.79,1.39,3.06,2.67,3.8c1.28,0.74,2.97,0.91,5.09,0.53c2.1-0.38,3.63-1.12,4.57-2.26
		C423.15,51.83,423.54,50.33,423.4,48.48L423.4,48.48z M453.31,61.12L453.31,61.12l28.2-2.14l0.68,8.91l-17.19,1.31l2.49,32.75
		l-11.01,0.84L453.31,61.12z M499.4,71.64L499.4,71.64l-9.94-2.02c1.23-4.05,3.25-7.02,6.05-8.9c2.8-1.89,6.92-2.76,12.34-2.63
		c4.93,0.12,8.59,0.79,10.98,2.02c2.37,1.23,4.04,2.75,4.98,4.57c0.93,1.82,1.35,5.12,1.22,9.92l-0.49,12.87
		c-0.09,3.66,0.01,6.38,0.32,8.13c0.31,1.75,0.92,3.63,1.83,5.64l-10.96-0.28c-0.26-0.73-0.6-1.81-0.98-3.25
		c-0.16-0.66-0.28-1.09-0.35-1.3c-1.93,1.8-3.98,3.13-6.15,4c-2.17,0.87-4.47,1.28-6.89,1.22c-4.28-0.11-7.64-1.36-10.05-3.76
		c-2.41-2.38-3.57-5.37-3.48-8.93c0.06-2.35,0.67-4.44,1.85-6.26c1.17-1.81,2.78-3.19,4.85-4.12c2.05-0.93,5-1.71,8.84-2.35
		c5.18-0.84,8.79-1.66,10.8-2.44l0.03-1.11c0.05-2.15-0.43-3.69-1.45-4.64c-1.04-0.94-3.01-1.45-5.93-1.52
		c-1.97-0.05-3.51,0.3-4.64,1.06C501.05,68.33,500.13,69.69,499.4,71.64L499.4,71.64z M513.99,80.95L513.99,80.95
		c-1.42,0.43-3.68,0.94-6.77,1.52c-3.08,0.58-5.11,1.17-6.06,1.77c-1.46,1-2.22,2.27-2.26,3.83c-0.04,1.56,0.5,2.9,1.63,4.06
		c1.12,1.16,2.57,1.75,4.36,1.8c1.99,0.05,3.91-0.56,5.76-1.81c1.35-0.97,2.27-2.16,2.72-3.6c0.31-0.93,0.5-2.73,0.57-5.36
		L513.99,80.95z M549.46,86.7L549.46,86.7l0.9-7.11c1.9,0.24,3.31,0.3,4.2,0.16c0.89-0.14,1.77-0.64,2.67-1.5
		c0.89-0.86,1.42-1.9,1.58-3.14c0.17-1.31-0.16-2.59-0.97-3.82c-0.8-1.24-2.16-1.98-4.05-2.22c-1.45-0.18-2.8-0.04-4.02,0.44
		c-1.22,0.46-2.45,1.81-3.68,4.02l-9.02-3.17c1.39-3.5,3.75-5.96,7.04-7.38s6.91-1.88,10.83-1.39c5,0.63,8.72,2.27,11.17,4.92
		c2.45,2.64,3.46,5.68,3.01,9.16c-0.27,2.17-1.09,3.88-2.45,5.15c-1.37,1.27-3.4,2.36-6.11,3.26c2.96,1.23,5.09,2.78,6.38,4.66
		c1.3,1.88,1.79,4.08,1.48,6.61c-0.41,3.22-2.27,5.81-5.58,7.76c-3.31,1.95-7.8,2.55-13.46,1.83c-9.87-1.25-15.42-5.87-16.64-13.88
		l10.23-0.57c1.1,4.25,3.5,6.61,7.22,7.08c2.06,0.27,3.77-0.07,5.15-1c1.38-0.92,2.15-2.1,2.33-3.57c0.21-1.61-0.27-2.96-1.45-4.05
		c-1.17-1.08-2.81-1.76-4.88-2.02C551.34,86.94,549.46,86.7,549.46,86.7z M625.31,70.27L625.31,70.27l-26.69-6.16l-3.48,15.06
		l11.3,2.6l-1.65,7.14l-11.3-2.6l-5.67,24.55l-11.39-2.63l5.68-24.55l-6.44-1.49l1.65-7.14l6.44,1.49l5.65-24.47l38.08,8.78
		L625.31,70.27z M644.55,83.79L644.55,83.79c3.04-4,6.82-5.1,11.35-3.31c2.65,1.04,4.42,2.52,5.32,4.42
		c0.89,1.91,0.95,3.84,0.18,5.8c-0.97,2.46-2.63,4.1-4.98,4.89c-2.33,0.79-5.16,0.55-8.48-0.76l-1.24-0.49l-3.19,8.09l2.46,0.97
		c3.56,1.4,5.97,3.13,7.2,5.17c1.24,2.05,1.42,4.18,0.56,6.38c-0.76,1.92-2.22,3.31-4.36,4.18c-2.16,0.87-4.95,0.62-8.37-0.73
		c-2.5-0.98-4.41-2.29-5.73-3.92c-1.33-1.62-1.87-4.26-1.62-7.89l-11.17-0.68c-0.39,5.79,0.66,10.25,3.17,13.41
		c2.51,3.15,6.57,5.83,12.18,8.04c6.88,2.71,12.63,3.29,17.22,1.74c4.61-1.54,7.84-4.67,9.7-9.39c1.3-3.29,1.49-6.38,0.61-9.32
		c-0.89-2.93-2.89-5.71-5.95-8.33c3.54-0.42,6.46-1.36,8.73-2.85c2.28-1.5,3.93-3.52,4.94-6.07c1.48-3.75,1.16-7.63-0.95-11.67
		c-2.12-4.03-6.33-7.29-12.63-9.77c-10.64-4.19-18.82-2.37-24.55,5.47L644.55,83.79L644.55,83.79z M726.85,105.57L726.85,105.57
		l-12.25,21.28c1.77,0.83,3.4,0.93,4.9,0.32c1.51-0.61,4.17-2.48,7.99-5.6c4.99-4.05,8.96-6.19,11.88-6.42
		c2.88-0.22,6.74,1.05,11.55,3.82c0.22,0.13,0.73,0.4,1.49,0.81l-4.3,7.47l-1.45-0.88c-2.05-1.18-3.7-1.78-4.95-1.82
		c-1.25-0.04-2.48,0.3-3.67,1c-1.19,0.71-3.31,2.36-6.34,4.95c-1.61,1.38-3.11,2.44-4.5,3.19c-1.39,0.75-3.29,1.11-5.7,1.09
		c1.87,1.94,2.99,4.3,3.36,7.06c0.36,2.76,0.4,6.41,0.12,10.94l-1.05,17.59l-11.88-6.82l1.38-16.34c0.03-0.23,0.05-0.68,0.03-1.39
		c0.01-0.45,0.05-1.46,0.13-3.05c0.1-3.11-0.06-5.23-0.49-6.36c-0.43-1.13-1.24-2.03-2.44-2.72l-12.57,21.84l-9.85-5.66l12.57-21.84
		c-1.15-0.66-2.33-0.92-3.54-0.77c-1.21,0.16-3.13,1.08-5.78,2.79c-1.49,0.96-2.37,1.51-2.61,1.63c-0.4,0.22-0.81,0.46-1.19,0.72
		l-13.42,9.44l-11.88-6.82l14.7-9.76c3.62-2.42,6.75-4.2,9.39-5.33c2.63-1.13,5.3-1.37,7.97-0.71c-1.23-2.07-1.87-3.89-1.93-5.45
		c-0.07-1.56,0.09-3.39,0.46-5.52c0.7-3.83,1.07-6.46,1.1-7.86c0.03-1.41-0.28-2.64-0.95-3.72c-0.66-1.08-2.09-2.26-4.28-3.51
		c-0.27-0.15-0.71-0.39-1.31-0.71l4.3-7.47c0.75,0.46,1.23,0.75,1.45,0.88c4.89,2.81,7.96,5.53,9.21,8.15
		c1.21,2.63,1.32,7.1,0.33,13.39c-0.76,4.9-1.03,8.14-0.82,9.73c0.21,1.59,1.13,2.94,2.74,4.05L717,99.92L726.85,105.57
		L726.85,105.57z M769.31,133.38L769.31,133.38l-37.77,43.56l8.77,7.59l42.41-13.25l-24.74,28.54l8.22,7.12l37.77-43.57l-8.77-7.59
		l-42.81,13.72l25.15-29L769.31,133.38L769.31,133.38z"/>
	<path class="st3" d="M360.55,866.84l-21.16,53.62l-10.87-4.28l8.34-21.12l-21.14-8.33l-8.34,21.12l-10.87-4.28l21.16-53.62
		l10.87,4.28l-9.25,23.44l21.14,8.33l9.25-23.44L360.55,866.84L360.55,866.84z M275.57,892.72L275.57,892.72l28.76-49.96
		l-10.06-5.78l-39.09,21.09l18.84-32.73l-9.43-5.42l-28.76,49.96l10.06,5.78l39.4-21.63l-19.14,33.26L275.57,892.72L275.57,892.72z
		 M214.59,854.74L214.59,854.74l-34.66-29.99l37.77-43.56l8.83,7.64l-31.39,36.2l17,14.7l31.39-36.2l8.83,7.64L214.59,854.74z
		 M163.12,808.79L163.12,808.79l43.61-37.74l-7.6-8.76l-43.86,7.07l28.56-24.72l-7.12-8.22l-43.61,37.74l7.6,8.76l44.33-7.48
		L156,800.57L163.12,808.79L163.12,808.79z M133.81,748.74L133.81,748.74l-5.96-9.28l12.89-8.25l-8.61-13.42l-12.89,8.25l-5.96-9.28
		l35.21-22.55l5.96,9.28l-14.79,9.47l8.61,13.42l14.79-9.47l5.96,9.29L133.81,748.74L133.81,748.74z M120.44,668.94L120.44,668.94
		c2.14-0.42,3.89-0.32,5.27,0.3c1.37,0.61,2.45,1.68,3.24,3.22c1.15,2.25,1.3,4.55,0.45,6.88c-0.85,2.35-2.72,4.3-5.6,5.86
		l-12.6-24.58c-7.63,3.72-12.45,8.12-14.47,13.18c-2.02,5.07-1.61,10.36,1.21,15.88c2.52,4.92,6.36,8.1,11.51,9.52
		c5.14,1.42,10.8,0.56,16.97-2.59c5.18-2.65,8.83-6.07,10.97-10.25c2.65-5.26,2.3-11.13-1.01-17.59c-2.09-4.07-4.77-6.99-8.04-8.75
		c-3.28-1.74-7.04-2.34-11.28-1.75L120.44,668.94z M110.17,673.47L110.17,673.47l7.51,14.65c-2.68,1.4-5.16,1.81-7.45,1.22
		c-2.28-0.6-3.98-1.96-5.07-4.1c-1.03-2.01-1.16-4.08-0.38-6.24C105.55,676.84,107.35,675,110.17,673.47z M61.34,639.93
		L61.34,639.93l-3.54-10.45l20.13-6.8c-2.38-0.6-4.35-1.62-5.92-3.04c-1.57-1.42-2.73-3.27-3.5-5.52
		c-1.43-4.23-0.54-8.38,2.66-12.46c3.21-4.08,7.66-7.08,13.39-9.02c5.75-1.95,11.09-2.08,16.05-0.4c4.96,1.67,8.14,4.56,9.53,8.66
		c0.63,1.85,0.75,3.76,0.38,5.71c-0.38,1.94-1.26,3.92-2.63,5.93l19.6-6.63l3.54,10.45l-19.61,6.63c2.36,0.89,4.29,2.03,5.8,3.43
		c1.51,1.4,2.6,3.08,3.26,5.01c1.44,4.24,0.64,8.43-2.37,12.54c-3.02,4.11-7.52,7.18-13.53,9.21c-5.94,2.01-11.4,2.08-16.35,0.23
		c-4.96-1.85-8.06-4.63-9.31-8.31c-0.67-2-0.83-3.98-0.45-5.97c0.39-1.97,1.3-3.95,2.73-5.92L61.34,639.93L61.34,639.93z
		 M85.91,639.4L85.91,639.4c0.65,1.92,2.39,3.21,5.21,3.86c2.81,0.65,6.12,0.34,9.94-0.95c3.84-1.3,6.69-3.02,8.56-5.13
		c1.86-2.13,2.45-4.18,1.78-6.18c-0.68-2.02-2.43-3.35-5.21-3.96c-2.79-0.63-6.2-0.26-10.22,1.1c-4.35,1.47-7.26,3.3-8.72,5.49
		C85.79,635.83,85.35,637.75,85.91,639.4L85.91,639.4z M77.7,614.91L77.7,614.91c0.72,2.13,2.55,3.44,5.5,3.93
		c2.95,0.49,6.3,0.09,10.05-1.17c3.75-1.27,6.49-2.99,8.21-5.16c1.72-2.16,2.24-4.21,1.58-6.17c-0.66-1.95-2.48-3.2-5.43-3.77
		c-2.96-0.57-6.13-0.28-9.5,0.86c-3.6,1.22-6.42,2.9-8.47,5.01C77.6,610.57,76.96,612.73,77.7,614.91L77.7,614.91z M63.85,589.85
		L63.85,589.85l-6.64-37.16l8.81-1.57l2.35,13.15l32.36-5.77l1.94,10.86l-32.36,5.77l2.35,13.15
		C72.66,588.28,63.85,589.85,63.85,589.85z M83.23,515.55L83.23,515.55l1.01-11.13c4.14,1.1,7.37,3.1,9.72,5.97
		c2.33,2.89,3.68,6.62,4.03,11.18c0.55,7.24-1.41,12.78-5.89,16.61c-3.6,3.03-8.28,4.77-14.08,5.21
		c-6.91,0.53-12.47-0.87-16.65-4.17c-4.2-3.3-6.5-7.71-6.92-13.23c-0.47-6.18,1.21-11.22,5.03-15.11c3.82-3.88,9.98-6.07,18.45-6.55
		l2.1,27.53c3.26-0.33,5.74-1.4,7.43-3.24c1.7-1.82,2.44-4,2.25-6.52c-0.13-1.73-0.71-3.14-1.73-4.23
		C86.94,516.77,85.36,516,83.23,515.55z M72.01,515.76L72.01,515.76c-3.2,0.33-5.57,1.33-7.11,3.02c-1.55,1.69-2.24,3.66-2.07,5.9
		c0.18,2.4,1.22,4.31,3.09,5.74c1.87,1.43,4.33,2.01,7.34,1.75L72.01,515.76z M54.62,493.36L54.62,493.36l0.72-28.25l8.94,0.23
		l-0.44,17.22l32.86,0.83l-0.28,11.02L54.62,493.36L54.62,493.36z M70.6,448.68L70.6,448.68l-3.02,9.68
		c-3.91-1.63-6.66-3.94-8.26-6.92c-1.6-2.97-2.05-7.15-1.37-12.53c0.62-4.88,1.66-8.46,3.12-10.71c1.46-2.24,3.14-3.74,5.05-4.49
		c1.91-0.74,5.24-0.82,10-0.22l12.77,1.78c3.64,0.46,6.35,0.63,8.13,0.51c1.78-0.13,3.71-0.55,5.8-1.25l-1.38,10.86
		c-0.76,0.19-1.87,0.41-3.33,0.65c-0.68,0.09-1.12,0.17-1.33,0.22c1.6,2.1,2.72,4.27,3.37,6.51c0.65,2.25,0.83,4.57,0.52,6.98
		c-0.54,4.24-2.13,7.45-4.76,9.61c-2.62,2.16-5.7,3.01-9.25,2.56c-2.33-0.29-4.35-1.12-6.05-2.47c-1.68-1.35-2.9-3.09-3.61-5.23
		c-0.72-2.13-1.2-5.14-1.45-9.03c-0.31-5.23-0.76-8.9-1.34-10.97l-1.11-0.14c-2.13-0.27-3.72,0.06-4.77,0.98
		c-1.04,0.94-1.74,2.85-2.11,5.74c-0.25,1.96-0.06,3.52,0.59,4.71C67.47,446.7,68.72,447.75,70.6,448.68z M81.34,435.11
		L81.34,435.11c0.29,1.46,0.57,3.75,0.83,6.88c0.27,3.12,0.65,5.2,1.15,6.2c0.85,1.56,2.03,2.44,3.59,2.64
		c1.55,0.19,2.94-0.21,4.2-1.21c1.27-1,2.01-2.38,2.24-4.15c0.25-1.97-0.16-3.94-1.22-5.9c-0.83-1.45-1.92-2.47-3.31-3.07
		c-0.9-0.4-2.66-0.77-5.29-1.11C83.52,435.39,81.34,435.11,81.34,435.11z M91.68,399.77L91.68,399.77l-6.9-1.96
		c0.52-1.85,0.79-3.22,0.78-4.13c-0.01-0.9-0.37-1.85-1.09-2.86c-0.72-1.01-1.67-1.69-2.87-2.03c-1.27-0.36-2.59-0.23-3.92,0.38
		c-1.35,0.61-2.28,1.83-2.81,3.67c-0.4,1.41-0.46,2.75-0.17,4.04c0.28,1.28,1.43,2.69,3.43,4.24l-4.49,8.43
		c-3.26-1.9-5.34-4.6-6.25-8.06c-0.91-3.46-0.83-7.11,0.25-10.9c1.38-4.84,3.55-8.27,6.54-10.29c2.98-2.03,6.15-2.57,9.52-1.61
		c2.11,0.6,3.67,1.66,4.73,3.2c1.06,1.54,1.82,3.71,2.31,6.53c1.66-2.74,3.51-4.61,5.57-5.6c2.06-1.01,4.31-1.16,6.76-0.47
		c3.13,0.89,5.41,3.11,6.85,6.67c1.43,3.56,1.36,8.08-0.2,13.57c-2.72,9.56-8.13,14.34-16.23,14.36l0.96-10.18
		c4.37-0.45,7.07-2.47,8.1-6.07c0.57-2,0.49-3.74-0.22-5.23c-0.71-1.5-1.76-2.44-3.18-2.84c-1.56-0.44-2.97-0.17-4.22,0.82
		c-1.25,1-2.17,2.51-2.74,4.53C92.2,397.95,91.68,399.77,91.68,399.77z"/>
	<path class="st3" d="M894.4,494.74l57.69,0.23l-0.04,11.3l-38.76,23.56l38.66,0.15l-0.04,10.79l-57.69-0.23l0.05-11.66l38.02-23.2
		l-37.92-0.15L894.4,494.74L894.4,494.74z M891.92,555.21L891.92,555.21l57,8.92l-1.81,11.53l-57-8.92L891.92,555.21z
		 M888.75,580.69L888.75,580.69l55.82,14.56l-4.72,18.05c-1.79,6.84-3.22,11.22-4.33,13.15c-1.68,2.97-4.2,5.17-7.57,6.59
		c-3.37,1.42-7.27,1.56-11.72,0.4c-3.43-0.9-6.14-2.27-8.15-4.11c-2.01-1.86-3.44-3.91-4.27-6.16c-0.83-2.25-1.2-4.43-1.12-6.52
		c0.17-2.82,0.91-6.78,2.24-11.87l1.91-7.32l-21.05-5.49L888.75,580.69z M932.18,604.08L932.18,604.08l-15.91-4.15l-1.6,6.14
		c-1.16,4.42-1.63,7.45-1.44,9.1c0.2,1.65,0.8,3.05,1.84,4.22c1.03,1.17,2.35,1.97,4.02,2.41c2.04,0.53,3.87,0.37,5.51-0.46
		c1.64-0.85,2.86-2.13,3.68-3.87c0.6-1.28,1.43-3.93,2.49-7.98L932.18,604.08L932.18,604.08z M873.62,634.72L873.62,634.72
		l54.11,19.99l-4.05,10.95l-54.11-19.99L873.62,634.72L873.62,634.72z M848.97,691.67L848.97,691.67L872.32,703
		c2.9,1.4,5.21,2.3,6.95,2.68c1.73,0.39,3.44,0.42,5.13,0.08c1.67-0.34,3.34-1.23,5.03-2.68c1.67-1.44,3.05-3.26,4.12-5.46
		c2.43-5.01,2.34-10.17-0.27-15.51l5.52,2.68l4.47-9.2l-37.62-18.25l-4.82,9.92l17.01,8.25c4.2,2.04,6.96,3.69,8.26,4.96
		c1.3,1.25,2.1,2.81,2.37,4.65c0.27,1.84-0.01,3.62-0.86,5.36c-0.66,1.35-1.54,2.35-2.68,2.99c-1.13,0.64-2.39,0.88-3.8,0.74
		c-1.39-0.15-4.11-1.21-8.17-3.18l-19.17-9.3L848.97,691.67z M842.06,728.87L842.06,728.87l-7.34,8.44
		c-2.71-3.31-4.16-6.82-4.38-10.53c-0.2-3.71,0.89-7.52,3.28-11.42c3.79-6.19,8.63-9.54,14.5-10.03c4.69-0.36,9.51,0.97,14.48,4
		c5.91,3.61,9.6,7.99,11.06,13.11c1.47,5.13,0.76,10.05-2.13,14.77c-3.24,5.29-7.55,8.39-12.93,9.32c-5.38,0.91-11.64-0.9-18.8-5.46
		l14.42-23.55c-2.84-1.64-5.48-2.21-7.92-1.71c-2.44,0.49-4.33,1.82-5.64,3.97c-0.9,1.48-1.26,2.96-1.07,4.44
		C839.76,725.71,840.59,727.26,842.06,728.87L842.06,728.87z M851.28,735.25L851.28,735.25c2.78,1.6,5.29,2.18,7.53,1.7
		c2.25-0.46,3.96-1.66,5.14-3.58c1.25-2.05,1.53-4.21,0.85-6.46c-0.68-2.26-2.33-4.16-4.92-5.72L851.28,735.25L851.28,735.25z
		 M855.11,760.01L855.11,760.01l-6.96-5.23l-3.68,4.89L818,739.79l-6.63,8.81l26.47,19.88l-4.99,6.63l6.96,5.22l4.99-6.63l2.38,1.79
		c1.72,1.29,2.66,2.45,2.83,3.47c0.17,1.02-0.23,2.18-1.21,3.49c-1,1.33-2.21,2.58-3.63,3.77l5.29,5.74
		c2.57-1.86,4.82-4.05,6.71-6.57c1.86-2.47,2.95-4.83,3.3-7.11c0.34-2.26,0.04-4.21-0.9-5.86c-0.93-1.64-2.81-3.52-5.62-5.64
		l-2.52-1.9L855.11,760.01L855.11,760.01z M820.26,802.15L820.26,802.15l-6.48-5.92l5.11-5.59l-12.5-11.41
		c-2.54-2.32-4.06-3.62-4.58-3.89c-0.51-0.27-1.08-0.35-1.71-0.22c-0.61,0.13-1.17,0.46-1.66,1.01c-0.7,0.77-1.44,2.09-2.23,4
		l-6.97-5.11c0.92-2.63,2.47-5.14,4.66-7.54c1.34-1.47,2.79-2.56,4.37-3.28c1.57-0.73,3-1,4.29-0.83c1.3,0.17,2.7,0.76,4.25,1.78
		c1.11,0.7,3.11,2.36,6.02,5.01l13.51,12.33l3.43-3.75l6.48,5.92l-3.42,3.75l6.13,5.59l-2.63,12.54l-10.95-9.99L820.26,802.15
		L820.26,802.15z M775.43,806.03L775.43,806.03c-0.95-1.96-1.32-3.67-1.07-5.16c0.24-1.48,1-2.8,2.28-3.96
		c1.87-1.69,4.06-2.43,6.54-2.21c2.49,0.21,4.86,1.51,7.12,3.88l-20.5,18.52c5.57,6.4,11.07,9.91,16.49,10.55
		c5.43,0.63,10.44-1.13,15.04-5.28c4.1-3.71,6.18-8.23,6.23-13.56c0.05-5.33-2.26-10.57-6.9-15.71c-3.9-4.31-8.15-6.95-12.75-7.93
		c-5.77-1.19-11.36,0.66-16.75,5.52c-3.4,3.07-5.53,6.42-6.38,10.03c-0.84,3.61-0.44,7.39,1.22,11.34L775.43,806.03L775.43,806.03z
		 M782.47,814.76L782.47,814.76c2.21,2.32,4.46,3.59,6.74,3.77c2.29,0.19,4.26-0.47,5.94-1.98c1.78-1.61,2.66-3.6,2.65-5.96
		c-0.01-2.36-1.06-4.65-3.1-6.87L782.47,814.76L782.47,814.76z M750.35,807.14L750.35,807.14l-11.06,6.31c-1.06-1.07-2.06-1.6-3-1.6
		c-1.32,0-2.89,0.66-4.7,2.01c-2.32,1.72-3.8,3.35-4.44,4.92c-0.43,1.04-0.47,2.22-0.1,3.55c0.28,0.93,1.15,2.41,2.62,4.38l3.6,4.93
		c-0.04-5.63,1.97-9.95,6.02-12.96c4.5-3.35,9.5-4.1,14.96-2.25c4.31,1.47,8.13,4.44,11.45,8.91c4.18,5.62,6.02,10.91,5.52,15.88
		c-0.5,4.97-2.77,8.96-6.8,11.96c-4.15,3.08-8.93,3.81-14.33,2.17l3.54,4.75l-8.28,6.15l-22.38-30.06
		c-2.94-3.95-4.82-7.15-5.61-9.59c-0.81-2.44-1.03-4.65-0.68-6.65c0.35-1.98,1.26-4.03,2.78-6.12c1.5-2.1,3.75-4.26,6.76-6.5
		c5.69-4.23,10.45-6.24,14.28-6.06c3.84,0.19,6.86,1.77,9.1,4.78C749.8,806.33,750.05,806.7,750.35,807.14L750.35,807.14z
		 M756.96,832.62L756.96,832.62c-2.64-3.55-5.26-5.63-7.86-6.26c-2.61-0.62-4.93-0.18-6.94,1.31c-2.15,1.6-3.35,3.81-3.58,6.61
		c-0.24,2.8,0.88,5.85,3.34,9.17c2.58,3.47,5.21,5.51,7.89,6.13c2.67,0.62,5.11,0.12,7.3-1.51c2.12-1.58,3.25-3.7,3.41-6.38
		C760.66,839.02,759.48,836,756.96,832.62L756.96,832.62z M717.63,867.99L717.63,867.99c0.33,2.06,0.21,3.7-0.4,4.91
		c-0.59,1.22-1.76,2.29-3.49,3.22c-2.56,1.39-4.53,1.92-5.9,1.62c-1.36-0.31-2.55-1.41-3.57-3.3l-0.53-0.98
		c1.35-1.67,4.08-4.18,8.16-7.47c3.02-2.46,5.19-4.61,6.51-6.43c1.33-1.83,2.04-3.83,2.16-5.98c0.11-2.16-0.39-4.29-1.51-6.35
		c-1.7-3.14-4.19-5.15-7.46-6.02c-3.29-0.88-6.82-0.3-10.59,1.73c-2.14,1.16-3.92,2.65-5.37,4.48c-1.45,1.84-2.57,4.01-3.35,6.53
		c-0.17-0.14-0.49-0.45-0.95-0.95c-1.04-1.05-1.87-1.82-2.47-2.33l-9.64,5.2c1.79,1.29,3.26,2.62,4.39,3.99
		c1.14,1.37,2.58,3.67,4.32,6.9l5.98,11.41c2.28,4.23,4.28,6.88,6,8c1.72,1.12,3.92,1.61,6.59,1.5c2.68-0.12,6.19-1.36,10.53-3.7
		c4.77-2.57,7.91-5.38,9.41-8.4c1.49-3.03,1.77-6.61,0.83-10.73L717.63,867.99z M700.33,867.16L700.33,867.16l-1.04-1.94
		c-1.26-2.32-1.98-3.98-2.18-4.94c-0.32-1.48-0.12-2.96,0.57-4.47c0.98-2.01,2.34-3.49,4.09-4.43c1.57-0.85,3.13-1.05,4.68-0.6
		c1.55,0.44,2.69,1.34,3.43,2.71c0.74,1.38,0.72,2.86-0.06,4.45c-0.53,0.99-2,2.51-4.38,4.54
		C703.06,864.52,701.35,866.08,700.33,867.16L700.33,867.16z M679.72,868.96L679.72,868.96l-9.6,5.85
		c-1.26-1.79-2.77-2.92-4.53-3.37c-1.76-0.47-3.84-0.19-6.23,0.8c-2.64,1.11-4.42,2.42-5.35,3.94c-0.6,1.05-0.67,2.15-0.19,3.29
		c0.32,0.77,0.84,1.31,1.54,1.61c0.71,0.27,2.04,0.25,3.97-0.08c9-1.63,14.91-2.15,17.74-1.58c3.94,0.81,6.67,3.07,8.23,6.77
		c1.41,3.35,1.26,6.71-0.42,10.1c-1.69,3.38-5.29,6.23-10.83,8.55c-5.27,2.21-9.57,2.99-12.85,2.34c-3.29-0.66-6.13-2.47-8.51-5.44
		l8.84-5.79c1.04,1.34,2.32,2.17,3.81,2.49c1.49,0.32,3.31,0.03,5.45-0.87c2.7-1.13,4.48-2.31,5.34-3.56
		c0.56-0.86,0.65-1.71,0.3-2.56c-0.31-0.73-0.9-1.21-1.79-1.43c-1.21-0.29-4.8,0.09-10.77,1.13c-5.97,1.05-10.4,1.13-13.31,0.23
		c-2.9-0.91-5.03-3-6.39-6.24c-1.48-3.53-1.28-7.19,0.61-10.96c1.88-3.77,5.72-6.87,11.52-9.3c5.25-2.2,9.86-2.88,13.82-2.05
		C674.05,863.69,677.26,865.72,679.72,868.96L679.72,868.96z"/>
</g>
</svg>
